<svg width="377.953" height="377.952" viewBox="0 0 83.5 83.5" xml:space="preserve" xmlns="http://www.w3.org/2000/svg"><path style="fill:#8bc4b0;fill-opacity:1;stroke-width:.183429" d="M128.715 59.081a4.6 4.6 0 0 0-3.148-.606 4.587 4.587 0 0 0-3.761 5.286 5 5 0 0 0 .065.267l-.03.003a5 5 0 0 0-.035-.27A4.587 4.587 0 0 0 116.52 60a4.587 4.587 0 0 0-3.761 5.286 5 5 0 0 0 .065.267l-.03.003a5 5 0 0 0-.035-.27 4.587 4.587 0 0 0-5.286-3.762 4.587 4.587 0 0 0-3.762 5.286 5 5 0 0 0 .065.267l-.028.003a5 5 0 0 0-.037-.27 4.587 4.587 0 0 0-5.286-3.761 4.587 4.587 0 0 0-3.761 5.286 5 5 0 0 0 .065.267l-.029.003a5 5 0 0 0-.036-.27 4.587 4.587 0 0 0-5.286-3.762 4.587 4.587 0 0 0-3.761 5.287 5 5 0 0 0 .065.267l-.029.002a5 5 0 0 0-.036-.27 4.587 4.587 0 0 0-5.286-3.76 4.587 4.587 0 0 0-3.762 5.285 5 5 0 0 0 .065.267l-.028.003a5 5 0 0 0-.036-.27 4.587 4.587 0 0 0-5.286-3.761 4.587 4.587 0 0 0-3.762 5.286 5 5 0 0 0 .065.266l-.028.003a5 5 0 0 0-.037-.27 4.587 4.587 0 0 0-5.285-3.76 4.587 4.587 0 0 0-3.762 5.285 4.587 4.587 0 0 0 5.052 3.784l.003.034A4.587 4.587 0 0 0 60 83.48a4.587 4.587 0 0 0 5.052 3.783l.003.034a4.587 4.587 0 0 0-3.53 5.23 4.587 4.587 0 0 0 5.05 3.783l.004.033a4.587 4.587 0 0 0-3.53 5.23 4.587 4.587 0 0 0 5.05 3.784l.004.034a4.587 4.587 0 0 0-3.53 5.23 4.587 4.587 0 0 0 5.052 3.783l.003.034a4.587 4.587 0 0 0-3.53 5.23 4.587 4.587 0 0 0 5.051 3.783l.004.034a4.587 4.587 0 0 0-3.53 5.23 4.587 4.587 0 0 0 5.05 3.784l.004.033a4.587 4.587 0 0 0-3.53 5.23 4.587 4.587 0 0 0 5.286 3.761 4.587 4.587 0 0 0 3.795-5.041l.024-.006A4.587 4.587 0 0 0 83.48 140a4.587 4.587 0 0 0 3.795-5.041l.025-.006a4.587 4.587 0 0 0 5.228 3.522 4.587 4.587 0 0 0 3.795-5.041l.024-.006a4.587 4.587 0 0 0 5.228 3.522 4.587 4.587 0 0 0 3.795-5.04l.024-.007a4.587 4.587 0 0 0 5.228 3.522 4.587 4.587 0 0 0 3.795-5.04l.024-.006a4.587 4.587 0 0 0 5.228 3.522 4.587 4.587 0 0 0 3.795-5.04l.024-.007a4.587 4.587 0 0 0 5.228 3.523 4.587 4.587 0 0 0 3.795-5.041l.024-.006a4.587 4.587 0 0 0 5.228 3.522 4.587 4.587 0 0 0 3.761-5.286 4.587 4.587 0 0 0-5.285-3.761 5 5 0 0 0-.265.064l-.009-.038a5 5 0 0 0 .274-.026 4.587 4.587 0 0 0 3.761-5.286 4.587 4.587 0 0 0-5.286-3.762 5 5 0 0 0-.264.065l-.01-.039a5 5 0 0 0 .273-.026 4.587 4.587 0 0 0 3.761-5.286 4.587 4.587 0 0 0-5.285-3.761 5 5 0 0 0-.264.064l-.01-.038a5 5 0 0 0 .274-.026 4.587 4.587 0 0 0 3.762-5.286 4.587 4.587 0 0 0-5.286-3.762 5 5 0 0 0-.265.065l-.009-.038a5 5 0 0 0 .274-.027 4.587 4.587 0 0 0 3.761-5.285 4.587 4.587 0 0 0-5.286-3.762 5 5 0 0 0-.264.065l-.01-.039a5 5 0 0 0 .274-.026 4.587 4.587 0 0 0 3.762-5.285 4.587 4.587 0 0 0-5.286-3.762 5 5 0 0 0-.265.064l-.009-.038a5 5 0 0 0 .274-.026 4.587 4.587 0 0 0 3.761-5.286 4.587 4.587 0 0 0-5.286-3.76 5 5 0 0 0-.264.063l-.01-.038a5 5 0 0 0 .274-.026 4.587 4.587 0 0 0 3.761-5.286 4.6 4.6 0 0 0-2.137-3.155zM117.81 69.07l.003.033-.033.008-.01-.038zm5.578 3.978.007.027-.028.003-.002-.025zm-14.626-2.454.003.034-.033.008-.009-.038zm10.572 7.523.003.034-.033.007-.009-.038zm-4.993-3.545.007.028-.029.003-.002-.025zm10.572 7.523.007.027-.029.003-.002-.025zm-25.198-9.976.003.034-.032.007-.01-.038zm10.572 7.522.003.034-.033.008-.009-.038zm10.572 7.523.003.034-.033.007-.009-.038zm-15.565-11.067.007.027-.029.003-.002-.025zm10.572 7.522.007.028-.029.003-.002-.025zm10.571 7.523.007.027-.017.002-.011.001-.003-.024zM90.668 73.643l.003.034-.033.008-.01-.038zm10.572 7.523.003.034-.033.008-.01-.038zm21.144 15.045.003.034-.033.008-.01-.038zM111.81 88.69l.003.033-.032.008-.01-.038zM96.247 77.62l.007.028-.017.002h-.012l-.002-.024zm10.572 7.523.007.028-.029.002-.002-.025zm10.571 7.522.007.028-.017.002h-.011l-.002-.024zm10.572 7.523.007.028-.029.003-.003-.025zm-46.34-25.021.002.034-.033.008-.01-.039zm21.143 15.045.002.034-.032.008-.01-.038zm10.572 7.523.003.034-.033.008-.01-.039.039-.003zm10.571 7.522.003.034-.033.008-.009-.038zM87.2 79.146l.007.028-.028.002-.002-.024zm21.144 15.045.007.028-.017.002h-.012l-.003-.024zm10.572 7.523.007.027-.029.003-.003-.024zm10.571 7.522.007.028-.028.003-.003-.025zM72.574 76.692l.003.034-.033.008-.01-.038zM104.29 99.26l.002.017.001.017-.033.008-.009-.038zm10.572 7.523.003.034-.033.008-.009-.039zm10.572 7.522.003.034-.033.008-.01-.038zM78.153 80.67l.006.028-.028.003-.003-.025zm31.715 22.568.007.028-.029.003-.003-.025zm10.571 7.523.007.028-.028.002-.003-.024zm10.572 7.522.007.028-.028.003-.003-.024zm-25.197-9.976.003.034-.033.008-.01-.038.038-.004zm10.572 7.523.003.034-.033.008-.01-.039zm10.571 7.522.003.034-.033.008-.01-.038zM69.105 82.195l.007.028-.028.002-.003-.024zm42.287 30.09.007.028-.028.003-.003-.025zm10.572 7.523.007.028-.029.003-.003-.025zm-14.626-2.454.004.034-.033.008-.009-.038.04-.004zm10.572 7.523.003.034-.033.008-.01-.039zM70.63 91.242l.007.027-.029.003-.002-.025zm42.287 30.09.007.028-.029.003-.003-.025zm-35.77-17.498.004.033-.033.008-.01-.038zm10.572 7.522.004.034-.033.008-.01-.038zm10.572 7.523.003.033-.033.008-.009-.037zm10.572 7.523.003.033-.033.008-.009-.038zm-36.709-26.113.007.028-.029.003-.002-.025zm10.572 7.523.007.028-.029.003-.002-.025zm10.572 7.522.007.029-.029.003-.003-.025zm10.572 7.523.007.028-.029.003-.002-.025zm-25.198-9.976.004.033-.034.008-.009-.038zm10.572 7.523.003.033-.033.008-.01-.037zm-15.565-11.067.007.028-.029.003-.003-.025zm10.572 7.522.006.028-.028.003-.003-.024zm10.571 7.523.007.028-.029.003-.002-.025zm-19.618-5.998.006.028-.028.003-.003-.025zm1.524 9.047.007.028-.029.003-.002-.025z" transform="translate(-58.412 -58.412)"/><path style="fill:#fff;fill-opacity:1;stroke-width:.264583" d="m96.582 128.013-7.461-31.177-18.164-14.09 30.73 9.127 21.284-8.686-23.268 22.05Z" transform="rotate(-10.698 -334.481 436.838)scale(1.1186 1.15682)"/></svg>